<svg width="17" height="17" viewBox="0 0 17 17" fill="none" xmlns="http://www.w3.org/2000/svg">
<path d="M8.50001 0.712891C4.06091 0.712891 0.461548 4.29503 0.461548 8.71289C0.461548 13.1307 4.06091 16.7129 8.50001 16.7129C12.9391 16.7129 16.5385 13.1307 16.5385 8.71289C16.5385 4.29503 12.9391 0.712891 8.50001 0.712891ZM8.50001 15.3557C4.81452 15.3557 1.82522 12.3807 1.82522 8.71289C1.82522 5.04503 4.81452 2.07003 8.50001 2.07003C12.1855 2.07003 15.1748 5.04503 15.1748 8.71289C15.1748 12.3807 12.1855 15.3557 8.50001 15.3557ZM9.35589 8.2986L8.90014 8.19325V5.79503C9.58197 5.88789 10.0036 6.31289 10.0754 6.83432C10.0844 6.90575 10.1454 6.95753 10.2172 6.95753H11.0228C11.1071 6.95753 11.1735 6.88432 11.1663 6.80039C11.0569 5.68789 10.1364 4.97361 8.90732 4.85039V4.26646C8.90732 4.18789 8.84272 4.12361 8.76377 4.12361H8.25957C8.18062 4.12361 8.11603 4.18789 8.11603 4.26646V4.85575C6.84567 4.97896 5.85162 5.67718 5.85162 6.98075C5.85162 8.18789 6.74519 8.77003 7.6836 8.99325L8.1268 9.10575V11.654C7.33372 11.5486 6.88873 11.1272 6.79722 10.5593C6.78645 10.4915 6.72545 10.4415 6.65547 10.4415H5.8265C5.74217 10.4415 5.67578 10.5129 5.68296 10.5968C5.7637 11.579 6.51193 12.4825 8.10885 12.5986V13.1593C8.10885 13.2379 8.17345 13.3022 8.2524 13.3022H8.76198C8.84093 13.3022 8.90552 13.2379 8.90552 13.1575L8.90193 12.5915C10.3069 12.4682 11.3117 11.72 11.3117 10.3772C11.3099 9.13789 10.5186 8.58432 9.35589 8.2986ZM8.125 8.00932C8.02452 7.98075 7.94019 7.95396 7.85586 7.92003C7.24938 7.70218 6.96768 7.35039 6.96768 6.89682C6.96768 6.2486 7.46111 5.87896 8.125 5.79503V8.00932ZM8.90014 11.6593V9.27182C8.95576 9.28789 9.006 9.30039 9.05804 9.31111C9.90674 9.56825 10.192 9.92539 10.192 10.4736C10.192 11.1718 9.66451 11.5915 8.90014 11.6593Z" fill="#778192"/>
</svg>
