<svg width="15" height="14" viewBox="0 0 15 14" fill="none" xmlns="http://www.w3.org/2000/svg">
<path fill-rule="evenodd" clip-rule="evenodd" d="M4.08621 0.0285075C3.95146 0.0755935 3.83561 0.178078 3.77455 0.304187C3.72634 0.403801 3.71707 0.473691 3.71707 0.738133V1.05335L3.28605 1.07031C2.68711 1.0939 2.37764 1.16576 1.95791 1.37872C1.26907 1.7282 0.77606 2.35453 0.563572 3.1501L0.504181 3.37246V7.52871V11.685L0.566415 11.9294C0.633763 12.1939 0.814997 12.602 0.956228 12.8073C1.07988 12.9871 1.37677 13.2963 1.5637 13.4402C1.91299 13.709 2.40055 13.9096 2.84576 13.9679C3.00567 13.9888 4.44841 13.9954 7.6409 13.9897L12.2073 13.9816L12.419 13.9214C12.906 13.7828 13.272 13.5854 13.5908 13.2892C14.0669 12.8469 14.3425 12.3487 14.449 11.7379C14.5116 11.379 14.5114 3.67704 14.4488 3.31799C14.3517 2.76105 14.1014 2.28727 13.6835 1.8691C13.1093 1.29455 12.4944 1.06536 11.5196 1.06262L11.2694 1.06191L11.2598 0.708766C11.2506 0.367488 11.2475 0.351684 11.1682 0.239519C10.9293 -0.0986684 10.4361 -0.0697933 10.2463 0.293523C10.176 0.428055 10.1702 0.463137 10.1702 0.750575V1.06191H7.49051H4.81082V0.750575C4.81082 0.463137 4.80497 0.428055 4.7347 0.293523C4.61091 0.0565896 4.33195 -0.0574066 4.08621 0.0285075ZM3.71707 2.74443C3.71707 3.3729 3.73197 3.46103 3.86194 3.60034C4.14101 3.89951 4.6749 3.77873 4.78227 3.39212C4.79781 3.3362 4.81058 3.03509 4.81066 2.72304L4.81082 2.15566H7.49051H10.1702L10.1704 2.72304C10.1704 3.03509 10.1832 3.3362 10.1987 3.39212C10.3061 3.77873 10.84 3.89951 11.1191 3.60034C11.2492 3.46086 11.2639 3.3732 11.2639 2.74041V2.14762L11.6536 2.16359C11.8719 2.17251 12.1144 2.1987 12.2051 2.22315C12.6396 2.34023 13.0309 2.66609 13.2319 3.0784C13.3516 3.32395 13.3957 3.5587 13.3963 3.95351L13.3968 4.28848H7.49051H1.58426L1.58472 3.95351C1.5853 3.5587 1.62938 3.32395 1.74911 3.0784C1.98758 2.58928 2.43897 2.26394 2.99183 2.18268C3.06736 2.17158 3.26147 2.16094 3.42313 2.15908L3.71707 2.15566V2.74443ZM13.3968 8.42668C13.3968 11.3838 13.3952 11.4773 13.342 11.6854C13.2063 12.2157 12.7984 12.6497 12.2743 12.8214L12.0706 12.8881H7.49051H2.91043L2.70672 12.8214C2.46454 12.7421 2.15052 12.5394 1.9936 12.3612C1.83074 12.1761 1.70156 11.9297 1.63886 11.6847C1.5859 11.4775 1.58426 11.3802 1.58426 8.42668V5.38223H7.49051H13.3968V8.42668ZM3.51175 7.04651C3.32647 7.1307 3.1705 7.3573 3.1705 7.54239C3.1705 7.72748 3.32647 7.95407 3.51175 8.03826C3.60759 8.0818 3.7014 8.08814 4.25799 8.08866C4.9617 8.08932 5.02167 8.07827 5.18792 7.91738C5.24392 7.86315 5.29366 7.77598 5.31972 7.68635C5.35729 7.5571 5.35729 7.52767 5.31972 7.39842C5.29366 7.30879 5.24392 7.22162 5.18792 7.16739C5.02167 7.0065 4.9617 6.99545 4.25799 6.99611C3.7014 6.99663 3.60759 7.00297 3.51175 7.04651ZM6.70252 7.06652C6.38702 7.22372 6.30855 7.62382 6.54124 7.88883C6.70473 8.07504 6.76672 8.08806 7.49051 8.08806C8.20262 8.08806 8.26899 8.07499 8.43061 7.90288C8.67274 7.64509 8.57515 7.20138 8.24246 7.04735C8.14591 7.00265 8.05751 6.99663 7.48903 6.99611C6.8499 6.99551 6.84391 6.99606 6.70252 7.06652ZM9.97879 7.0391C9.52382 7.23619 9.52748 7.85613 9.98475 8.04685C10.0669 8.08111 10.2088 8.08915 10.723 8.08866C11.2796 8.08814 11.3734 8.0818 11.4693 8.03826C11.6546 7.95407 11.8105 7.72748 11.8105 7.54239C11.8105 7.3573 11.6546 7.1307 11.4693 7.04651C11.3731 7.00281 11.2809 6.99677 10.7171 6.99718C10.204 6.99756 10.0552 7.00601 9.97879 7.0391ZM3.47595 10.2931C3.16046 10.4503 3.08199 10.8504 3.31468 11.1154C3.47779 11.3012 3.54092 11.3145 4.25799 11.3152C4.77221 11.3157 4.91415 11.3077 4.99627 11.2734C5.3677 11.1185 5.46136 10.6522 5.17556 10.3808C5.02131 10.2342 4.95088 10.2221 4.25651 10.2221C3.62438 10.2221 3.6171 10.2227 3.47595 10.2931ZM6.7659 10.2583C6.57099 10.3346 6.44893 10.4827 6.41054 10.6894C6.37032 10.906 6.51756 11.1645 6.73831 11.2648C6.8344 11.3085 6.92734 11.3146 7.49051 11.3146C8.21856 11.3146 8.284 11.3005 8.44144 11.1095C8.66826 10.8343 8.57102 10.426 8.24246 10.2739C8.14547 10.229 8.06033 10.2234 7.49051 10.2248C7.06687 10.2257 6.81999 10.2372 6.7659 10.2583ZM9.97879 10.2657C9.52382 10.4628 9.52748 11.0827 9.98475 11.2734C10.0669 11.3077 10.2088 11.3157 10.723 11.3152C11.4401 11.3145 11.5032 11.3012 11.6663 11.1154C11.9 10.8493 11.8185 10.4492 11.498 10.2896C11.3653 10.2234 11.3495 10.2221 10.7185 10.2231C10.2051 10.224 10.0551 10.2326 9.97879 10.2657Z" fill="#778192"/>
</svg>
