<svg width="15" height="13" viewBox="0 0 15 13" fill="none" xmlns="http://www.w3.org/2000/svg">
<path fill-rule="evenodd" clip-rule="evenodd" d="M3.00521 0.0490916C2.65531 0.214183 2.63576 0.773661 2.97261 0.982774C3.02214 1.01353 4.16308 1.02612 8.03767 1.03863L13.0388 1.05481L13.2084 1.14505C13.4006 1.24729 13.5409 1.40401 13.6328 1.6192C13.6948 1.76443 13.6958 1.80438 13.7106 4.60236C13.7253 7.4035 13.7262 7.43944 13.7871 7.52764C13.904 7.69736 13.9995 7.75031 14.1883 7.75031C14.3771 7.75031 14.4725 7.69736 14.5895 7.52761C14.6504 7.43924 14.6512 7.40877 14.6594 4.6347C14.6688 1.48277 14.6747 1.58236 14.4503 1.09666C14.2094 0.575125 13.7242 0.173589 13.1881 0.0520673C12.8904 -0.0154052 3.14793 -0.0182516 3.00521 0.0490916ZM1.79748 2.12398C1.27701 2.24509 0.786811 2.65448 0.550908 3.16509C0.320051 3.66476 0.331696 3.3915 0.341071 8.08993L0.349401 12.2787L0.432703 12.4625C0.624507 12.8856 1.06048 13.0927 1.48079 12.9603C1.62341 12.9154 1.80531 12.7815 2.56243 12.1641C3.06305 11.7559 3.50216 11.4144 3.53823 11.4052C3.57432 11.396 5.33035 11.385 7.44052 11.3807L11.2772 11.373L11.4941 11.2871C12.124 11.0376 12.5549 10.5101 12.7097 9.79881C12.7474 9.62537 12.7543 9.15523 12.7547 6.72852C12.7551 3.98161 12.7527 3.85272 12.6963 3.61362C12.5597 3.03503 12.2072 2.55253 11.74 2.30434C11.2817 2.06094 11.5941 2.07459 6.52987 2.07683C2.76385 2.07847 1.95853 2.08653 1.79748 2.12398ZM11.2976 3.21516C11.4897 3.3174 11.63 3.47411 11.7219 3.68931C11.7843 3.83551 11.7848 3.85628 11.7848 6.73143C11.7848 9.60658 11.7843 9.62734 11.7219 9.77354C11.63 9.98874 11.4897 10.1455 11.2976 10.2477L11.1279 10.3379L7.23152 10.3541L3.33514 10.3703L3.15739 10.4478C3.03611 10.5008 2.71142 10.745 2.13478 11.2171L1.28991 11.9087V7.9351C1.28991 3.5817 1.28194 3.78185 1.4661 3.50643C1.57513 3.34337 1.70848 3.23932 1.90136 3.1668C2.04169 3.11405 2.34163 3.11088 6.58959 3.11767L11.1279 3.12491L11.2976 3.21516ZM4.40122 6.34791C4.20121 6.48664 4.13066 6.79495 4.24782 7.01814C4.34864 7.2102 4.44111 7.26513 4.66379 7.26513C4.81075 7.26513 4.87769 7.24941 4.93952 7.20044C5.03823 7.12226 5.14151 6.90726 5.14151 6.77995C5.14151 6.64131 5.03596 6.43366 4.92364 6.35137C4.78964 6.2532 4.54015 6.25155 4.40122 6.34791ZM6.31209 6.34791C6.11208 6.48664 6.04153 6.79495 6.15869 7.01814C6.25951 7.2102 6.35198 7.26513 6.57466 7.26513C6.72162 7.26513 6.78856 7.24941 6.85039 7.20044C6.9491 7.12226 7.05238 6.90726 7.05238 6.77995C7.05238 6.64131 6.94683 6.43366 6.83451 6.35137C6.70051 6.2532 6.45102 6.25155 6.31209 6.34791ZM8.16635 6.34577C8.05884 6.42039 7.9481 6.64067 7.9481 6.77995C7.9481 6.90642 8.05122 7.12226 8.14799 7.19827C8.26043 7.28657 8.50807 7.30346 8.64664 7.2322C8.785 7.1611 8.90359 6.95086 8.90338 6.7771C8.9032 6.62582 8.80196 6.43036 8.67787 6.34176C8.5559 6.25466 8.29471 6.25673 8.16635 6.34577Z" fill="#778192"/>
</svg>
