<svg width="17" height="16" viewBox="0 0 17 16" fill="none" xmlns="http://www.w3.org/2000/svg">
<path d="M14.3818 11.7361C13.9103 11.2665 13.3593 10.8831 12.7541 10.6037C13.6075 9.91556 14.152 8.86559 14.152 7.68813C14.152 5.61069 12.4112 3.90636 10.3237 3.93824C8.26825 3.97011 6.61221 5.63694 6.61221 7.68813C6.61221 8.86559 7.15858 9.91556 8.01014 10.6037C7.40483 10.8829 6.85378 11.2663 6.38237 11.7361C5.3537 12.7617 4.76966 14.1154 4.73198 15.5591C4.73148 15.5792 4.735 15.5991 4.74235 15.6177C4.7497 15.6363 4.76072 15.6533 4.77477 15.6676C4.78882 15.682 4.8056 15.6934 4.82414 15.7011C4.84267 15.7089 4.86259 15.7129 4.8827 15.7129H5.93774C6.01875 15.7129 6.08658 15.6491 6.08846 15.5685C6.12426 14.4811 6.567 13.463 7.34509 12.6905C7.74326 12.2921 8.21686 11.9763 8.73848 11.7613C9.26011 11.5463 9.8194 11.4365 10.384 11.438C11.5313 11.438 12.6109 11.8824 13.4229 12.6905C14.1991 13.463 14.6418 14.4811 14.6795 15.5685C14.6814 15.6491 14.7492 15.7129 14.8302 15.7129H15.8853C15.9054 15.7129 15.9253 15.7089 15.9438 15.7011C15.9624 15.6934 15.9792 15.682 15.9932 15.6676C16.0073 15.6533 16.0183 15.6363 16.0256 15.6177C16.033 15.5991 16.0365 15.5792 16.036 15.5591C15.9983 14.1154 15.4143 12.7617 14.3818 11.7361ZM10.384 10.0881C9.73966 10.0881 9.13301 9.83869 8.67897 9.38495C8.4511 9.15997 8.27111 8.89161 8.14972 8.5959C8.02834 8.30018 7.96806 7.98316 7.97246 7.66375C7.97812 7.04877 8.22492 6.45441 8.65636 6.0138C9.10852 5.55256 9.71328 5.2957 10.3595 5.2882C10.9982 5.28257 11.618 5.53006 12.0739 5.97443C12.5412 6.43004 12.7974 7.0394 12.7974 7.68813C12.7974 8.32936 12.5468 8.93121 12.0909 9.38495C11.8672 9.60862 11.6012 9.78593 11.3082 9.90662C11.0152 10.0273 10.7011 10.089 10.384 10.0881ZM5.66456 8.18311C5.64761 8.01999 5.63819 7.855 5.63819 7.68813C5.63819 7.39001 5.66645 7.09939 5.7192 6.81628C5.73239 6.74878 5.69659 6.67941 5.63442 6.65128C5.37819 6.53691 5.14269 6.37941 4.93922 6.18067C4.69946 5.94932 4.5108 5.67076 4.38526 5.36279C4.25972 5.05481 4.20007 4.72417 4.21011 4.39197C4.22707 3.79012 4.4701 3.21826 4.894 2.78702C5.35935 2.31266 5.98484 2.05392 6.64989 2.06142C7.25089 2.06704 7.83116 2.29766 8.27014 2.7064C8.41897 2.84514 8.54709 2.99889 8.65447 3.16388C8.69215 3.22201 8.76563 3.24638 8.82969 3.22388C9.16127 3.10951 9.51169 3.02889 9.87154 2.99139C9.97704 2.98014 10.0373 2.86764 9.99023 2.7739C9.37793 1.56831 8.12695 0.73583 6.68004 0.713331C4.59068 0.681456 2.84986 2.38578 2.84986 4.46135C2.84986 5.63881 3.39434 6.68878 4.24779 7.37689C3.64868 7.6525 3.09667 8.03312 2.61813 8.50935C1.5857 9.53495 1.00166 10.8887 0.963975 12.3342C0.963472 12.3543 0.966999 12.3742 0.974348 12.3928C0.981697 12.4114 0.99272 12.4284 1.00677 12.4427C1.02081 12.4571 1.0376 12.4684 1.05613 12.4762C1.07467 12.484 1.09458 12.488 1.1147 12.488H2.17162C2.25263 12.488 2.32046 12.4242 2.32234 12.3436C2.35814 11.2561 2.80088 10.2381 3.57897 9.46557C4.13287 8.91434 4.81111 8.53185 5.55152 8.34623C5.625 8.32748 5.67398 8.25811 5.66456 8.18311Z" fill="#778192"/>
</svg>
