<svg width="17" height="16" viewBox="0 0 17 16" fill="none" xmlns="http://www.w3.org/2000/svg">
<path d="M15.536 8.21289C15.536 12.0766 12.3882 15.2129 8.49999 15.2129C4.61182 15.2129 1.46393 12.0766 1.46393 8.21289C1.46393 4.34916 4.61182 1.21289 8.49999 1.21289C12.3882 1.21289 15.536 4.34916 15.536 8.21289Z" stroke="#778192"/>
<path d="M6.81444 11.2534L6.81407 11.2538C6.76022 11.3221 6.67689 11.363 6.58903 11.363L5.9314 11.363L5.93108 11.363M6.81444 11.2534L5.93108 11.363M6.81444 11.2534L8.98745 8.47406L8.98775 8.47369M6.81444 11.2534L8.98775 8.47369M5.93108 11.363C5.89026 11.363 5.85026 11.3515 5.81563 11.3299C5.78091 11.3083 5.75301 11.2773 5.73509 11.2405C5.71716 11.2038 5.70994 11.1628 5.71421 11.1221C5.71849 11.0815 5.73411 11.0428 5.7593 11.0106M5.93108 11.363L8.13644 8.21292L8.01825 8.3053L7.94605 8.21292M5.7593 11.0106L5.87746 11.103L5.75928 11.0106L5.7593 11.0106ZM5.7593 11.0106L7.94605 8.21292M7.94605 8.21292L5.75961 5.41563C5.75954 5.41554 5.75947 5.41546 5.7594 5.41537L5.75928 5.41521L5.87746 5.32283C5.84256 5.27852 5.87406 5.21289 5.93108 5.21289H6.58903C6.63074 5.21289 6.67074 5.23164 6.69628 5.26488L7.94605 8.21292ZM8.98775 8.47369C9.10704 8.32011 9.10756 8.10606 8.98747 7.95265L8.98775 8.47369ZM11.5753 8.47369L11.575 8.47406L9.40197 11.2534L9.40159 11.2538C9.34774 11.3221 9.26441 11.363 9.17655 11.363L8.51893 11.363L8.51861 11.363M11.5753 8.47369L8.46498 5.32283L8.3468 5.41521L8.34693 5.41538C8.347 5.41546 8.34707 5.41555 8.34713 5.41563L10.5336 8.21292L8.34683 11.0106C8.34682 11.0106 8.34681 11.0106 8.3468 11.0106C8.32162 11.0428 8.30601 11.0815 8.30174 11.1221C8.29746 11.1628 8.30469 11.2038 8.32261 11.2405C8.34053 11.2773 8.36843 11.3083 8.40315 11.3299L8.48254 11.2027M11.5753 8.47369C11.6946 8.32011 11.6951 8.10606 11.575 7.95265L11.5753 8.47369ZM8.51861 11.363V11.213C8.50586 11.213 8.49336 11.2094 8.48254 11.2027M8.51861 11.363C8.47778 11.363 8.43778 11.3515 8.40315 11.3299L8.48254 11.2027M8.51861 11.363L8.48254 11.2027M9.40275 5.1735L11.5749 7.95251L9.40275 5.1735ZM9.40275 5.1735C9.4026 5.1733 9.40244 5.1731 9.40229 5.1729L9.40275 5.1735ZM8.98736 7.95251L6.81477 5.17291L8.98736 7.95251Z" fill="#778192" stroke="#778192" stroke-width="0.3"/>
</svg>
