<svg width="15" height="16" viewBox="0 0 15 16" fill="none" xmlns="http://www.w3.org/2000/svg">
<path fill-rule="evenodd" clip-rule="evenodd" d="M9.46611 1.0294C9.05434 1.12057 8.65775 1.38053 8.38554 1.73771C8.09442 2.11968 7.94745 2.28823 7.58867 2.65169C6.15633 4.10271 4.3551 5.37649 2.31439 6.38151C1.93651 6.56761 1.45869 6.78607 1.25257 6.86692C0.775526 7.05412 0.649324 7.12735 0.487208 7.31108C-0.200949 8.09099 -0.155603 9.75431 0.594609 11.2502C1.28461 12.626 2.3088 13.3349 3.19281 13.0484C3.36307 12.9932 4.65432 12.7776 4.73804 12.7903C4.78926 12.7981 4.86406 12.9286 5.08407 13.3937C5.79228 14.8907 5.84063 14.981 5.97189 15.0527C6.03863 15.0892 6.45161 15.2414 6.88962 15.3909C7.32762 15.5404 7.73008 15.6779 7.78399 15.6965C7.86719 15.7252 7.90463 15.719 8.03221 15.655C8.22262 15.5596 8.30032 15.4522 8.31656 15.262C8.32365 15.1791 8.25182 14.4867 8.15697 13.7233C8.06212 12.9598 7.98851 12.3312 7.99342 12.3263C7.99832 12.3214 8.21225 12.2995 8.46877 12.2777C8.76733 12.2524 9.49159 12.2384 10.4811 12.2389C11.872 12.2396 12.0505 12.2455 12.2612 12.2969C13.5697 12.6165 14.6359 11.6913 14.9296 9.98132C15.112 8.91984 14.9321 7.32541 14.4796 5.9921C14.0968 4.86391 13.5207 3.73422 12.9236 2.94051C12.1815 1.95413 11.3154 1.27337 10.5254 1.05557C10.2608 0.982621 9.73597 0.969629 9.46611 1.0294ZM10.3433 2.05703C11.5207 2.45225 12.758 4.1098 13.5243 6.3184C13.983 7.64025 14.0953 9.07609 13.8238 10.1457C13.6578 10.7995 13.2452 11.2929 12.8077 11.3609C12.5317 11.4039 12.1191 11.2774 11.7508 11.037C11.4777 10.8587 11.0646 10.5014 10.9018 10.3028L10.7867 10.1623L10.9306 10.0023C11.1016 9.81212 11.2391 9.53654 11.3297 9.20244C11.4263 8.84636 11.4253 8.06204 11.3278 7.60046C11.1192 6.61386 10.6075 5.59239 10.0027 4.95545C9.88538 4.83187 9.69543 4.66654 9.58057 4.58809C9.3698 4.44405 9.00109 4.2923 8.85712 4.29028C8.67049 4.28768 8.63851 4.26114 8.63851 4.10873C8.63851 3.77832 8.82196 3.00012 8.9712 2.69732C9.10437 2.42717 9.36061 2.15241 9.57541 2.04948C9.77351 1.95457 10.046 1.95722 10.3433 2.05703ZM7.69901 5.50803C7.86097 6.60265 8.07655 7.41489 8.42255 8.23393C8.85968 9.26868 9.42004 10.1852 10.0676 10.9246L10.3564 11.2544L10.1143 11.2548C9.64287 11.2556 8.27155 11.3181 7.7016 11.3647C6.18506 11.4888 4.54142 11.7331 3.29015 12.0203C3.03025 12.08 2.78872 12.1287 2.7534 12.1285C2.61161 12.1279 2.34856 11.9671 2.12745 11.7459C1.61487 11.2332 1.17312 10.3453 1.03417 9.54854C0.9734 9.20004 0.973994 8.61257 1.03539 8.35211C1.11347 8.02082 1.15516 7.97697 1.53967 7.82163C3.57872 6.99787 5.71517 5.66306 7.48299 4.10842L7.62353 3.98481L7.64392 4.62931C7.65516 4.98377 7.67993 5.37921 7.69901 5.50803ZM9.00062 5.40885C9.59684 5.79498 10.1559 6.82461 10.3396 7.87497C10.433 8.4086 10.3911 9.0393 10.2432 9.32512L10.1928 9.42262L10.1385 9.35057C10.0241 9.19895 9.57388 8.34842 9.41043 7.97522C9.0598 7.17457 8.70097 5.8773 8.70097 5.41025C8.70097 5.25198 8.758 5.25173 9.00062 5.40885ZM6.98359 12.4177C6.98371 12.422 7.03959 12.8674 7.10773 13.4074C7.17587 13.9475 7.22756 14.3934 7.22263 14.3984C7.21766 14.4033 7.07191 14.3636 6.89871 14.3102L6.58381 14.213L6.20946 13.3909L5.83513 12.5688L5.96417 12.5506C6.03516 12.5406 6.28297 12.5064 6.51486 12.4746C6.74674 12.4428 6.94702 12.4152 6.95989 12.4133C6.97275 12.4114 6.98343 12.4134 6.98359 12.4177Z" fill="#778192"/>
</svg>
