<svg width="13" height="12" viewBox="0 0 13 12" fill="none" xmlns="http://www.w3.org/2000/svg">
<path d="M5.71364 0H0.733285C0.589117 0 0.471161 0.117391 0.471161 0.26087V5.21739C0.471161 5.36087 0.589117 5.47826 0.733285 5.47826H5.71364C5.8578 5.47826 5.97576 5.36087 5.97576 5.21739V0.26087C5.97576 0.117391 5.8578 0 5.71364 0ZM4.86173 4.36957H1.58519V1.1087H4.86173V4.36957ZM12.2667 0H7.28638C7.14221 0 7.02426 0.117391 7.02426 0.26087V5.21739C7.02426 5.36087 7.14221 5.47826 7.28638 5.47826H12.2667C12.4109 5.47826 12.5289 5.36087 12.5289 5.21739V0.26087C12.5289 0.117391 12.4109 0 12.2667 0ZM11.4148 4.36957H8.13828V1.1087H11.4148V4.36957ZM5.71364 6.52174H0.733285C0.589117 6.52174 0.471161 6.63913 0.471161 6.78261V11.7391C0.471161 11.8826 0.589117 12 0.733285 12H5.71364C5.8578 12 5.97576 11.8826 5.97576 11.7391V6.78261C5.97576 6.63913 5.8578 6.52174 5.71364 6.52174ZM4.86173 10.8913H1.58519V7.63043H4.86173V10.8913ZM12.2667 6.52174H7.28638C7.14221 6.52174 7.02426 6.63913 7.02426 6.78261V11.7391C7.02426 11.8826 7.14221 12 7.28638 12H12.2667C12.4109 12 12.5289 11.8826 12.5289 11.7391V6.78261C12.5289 6.63913 12.4109 6.52174 12.2667 6.52174ZM11.4148 10.8913H8.13828V7.63043H11.4148V10.8913Z" fill="white"/>
</svg>
