<svg width="17" height="17" viewBox="0 0 17 17" fill="none" xmlns="http://www.w3.org/2000/svg">
<path fill-rule="evenodd" clip-rule="evenodd" d="M1.63017 0.743468C1.09341 0.848826 0.637137 1.3143 0.533112 1.86265C0.488963 2.09531 0.488963 15.3262 0.533112 15.5588C0.639607 16.1202 1.0931 16.5735 1.65465 16.6799C1.8864 16.7239 11.3101 16.7239 11.5418 16.6799C12.1034 16.5735 12.5569 16.1202 12.6633 15.5588C12.6831 15.4548 12.6953 14.5795 12.6953 13.2629V11.1352L14.4875 9.33693C16.1454 7.67339 16.2861 7.52396 16.3659 7.34175C16.5477 6.92697 16.5447 6.53086 16.3566 6.12908C16.1075 5.59688 15.4704 5.25965 14.8991 5.35748C14.4632 5.43211 14.3554 5.50975 13.4858 6.37468L12.6953 7.16094V5.25224C12.6953 4.10559 12.6827 3.27632 12.6638 3.17518C12.5911 2.78537 12.5009 2.66529 11.6199 1.78461C10.7388 0.903959 10.6187 0.813821 10.2288 0.741061C10.0193 0.701994 1.82981 0.704275 1.63017 0.743468ZM8.94324 2.86976C8.94324 4.07833 8.94403 4.09365 9.01334 4.21691C9.14986 4.4597 9.15273 4.46016 10.5366 4.46016H11.7573V6.28091V8.10163L10.6939 9.16412L9.63049 10.2266L9.27123 11.3074C9.07363 11.9018 8.9122 12.4293 8.91248 12.4794C8.91373 12.696 9.14895 12.9301 9.36538 12.9301C9.51599 12.9301 11.599 12.2239 11.6841 12.1441L11.7573 12.0753V13.7385C11.7573 15.3437 11.7551 15.4059 11.6943 15.525C11.6538 15.6044 11.5874 15.6708 11.5079 15.7113C11.3859 15.7736 11.3335 15.7742 6.59823 15.7742C1.96041 15.7742 1.8083 15.7724 1.69565 15.7149C1.62742 15.6801 1.55044 15.6041 1.50929 15.531L1.43919 15.4063L1.43935 8.7065L1.43951 2.0067L1.51345 1.88459C1.667 1.63103 1.35571 1.65006 5.371 1.64859L8.94324 1.64728V2.86976ZM10.1215 1.68003C10.2386 1.72357 11.6576 3.13514 11.7135 3.26369C11.7376 3.31901 11.7573 3.39986 11.7573 3.4434V3.52254H10.8193H9.88125V2.58491V1.64728H9.95739C9.99925 1.64728 10.0731 1.662 10.1215 1.68003ZM2.63109 5.45671C2.50024 5.5264 2.37758 5.72253 2.37736 5.86236C2.37714 6.0135 2.49645 6.20619 2.63365 6.27613C2.74568 6.33327 2.87291 6.33542 6.12923 6.33542C9.45436 6.33542 9.51052 6.33442 9.63193 6.27251C9.77066 6.20175 9.88125 6.02169 9.88125 5.86661C9.88125 5.71152 9.77066 5.53147 9.63193 5.46071C9.51046 5.39876 9.45571 5.39783 6.12266 5.39911C2.92296 5.40036 2.73095 5.40351 2.63109 5.45671ZM15.3225 6.33583C15.4574 6.40465 15.5718 6.58574 15.5718 6.7306C15.5718 6.87903 15.4559 7.06252 15.2047 7.31202L14.9609 7.55418L14.6253 7.21767L14.2897 6.88118L14.5477 6.62552C14.6897 6.48491 14.848 6.34814 14.8996 6.32158C15.0276 6.25572 15.1751 6.26069 15.3225 6.33583ZM2.63109 7.33196C2.50024 7.40166 2.37758 7.59778 2.37736 7.73761C2.37714 7.88876 2.49645 8.08144 2.63365 8.15139C2.74487 8.20812 2.8559 8.21068 5.19122 8.21068C7.57626 8.21068 7.63538 8.20924 7.75592 8.14776C7.89465 8.077 8.00524 7.89695 8.00524 7.74187C8.00524 7.58678 7.89465 7.40673 7.75592 7.33597C7.63529 7.27446 7.57763 7.27308 5.18465 7.27436C2.88841 7.27558 2.73024 7.27915 2.63109 7.33196ZM13.1646 9.35105L12.0388 10.4764L11.7028 10.1405L11.3668 9.80462L12.4919 8.67965L13.617 7.55468L13.9537 7.8902L14.2903 8.22571L13.1646 9.35105ZM2.63109 9.20722C2.50024 9.27692 2.37758 9.47304 2.37736 9.61287C2.37714 9.76402 2.49645 9.9567 2.63365 10.0266C2.74487 10.0834 2.8559 10.0859 5.19122 10.0859C7.57626 10.0859 7.63538 10.0845 7.75592 10.023C7.89465 9.95226 8.00524 9.77221 8.00524 9.61712C8.00524 9.46204 7.89465 9.28198 7.75592 9.21122C7.63529 9.14971 7.57763 9.14834 5.18465 9.14962C2.88841 9.15084 2.73024 9.1544 2.63109 9.20722ZM11.0382 10.8205L11.3654 11.1487L11.2409 11.2701C11.1343 11.3739 11.0465 11.4145 10.6338 11.5508C10.3684 11.6385 10.147 11.706 10.1418 11.7008C10.1366 11.6955 10.2042 11.4742 10.2921 11.209C10.4228 10.8143 10.4721 10.7054 10.5637 10.6094C10.6252 10.545 10.6836 10.4922 10.6933 10.4922C10.703 10.4922 10.8582 10.6399 11.0382 10.8205ZM2.63109 11.0825C2.50024 11.1522 2.37758 11.3483 2.37736 11.4881C2.37714 11.6393 2.49645 11.832 2.63365 11.9019C2.74487 11.9586 2.8559 11.9612 5.19122 11.9612C7.57626 11.9612 7.63538 11.9598 7.75592 11.8983C7.89465 11.8275 8.00524 11.6475 8.00524 11.4924C8.00524 11.3373 7.89465 11.1572 7.75592 11.0865C7.63529 11.025 7.57763 11.0236 5.18465 11.0249C2.88841 11.0261 2.73024 11.0297 2.63109 11.0825ZM6.38311 13.9579C6.25226 14.0276 6.1296 14.2237 6.12938 14.3635C6.12916 14.5147 6.24848 14.7074 6.38568 14.7773C6.49505 14.8331 6.59091 14.8366 8.00524 14.8366C9.45017 14.8366 9.51333 14.8341 9.63193 14.7737C9.77066 14.7029 9.88125 14.5229 9.88125 14.3678C9.88125 14.2127 9.77066 14.0326 9.63193 13.9619C9.51321 13.9013 9.45158 13.899 7.99867 13.9003C6.60589 13.9015 6.4806 13.906 6.38311 13.9579Z" fill="#778192"/>
</svg>
