<svg width="19" height="18" viewBox="0 0 19 18" fill="none" xmlns="http://www.w3.org/2000/svg">
<path fill-rule="evenodd" clip-rule="evenodd" d="M9.28755 0.747729C9.16437 0.804762 9.05393 0.922088 9.0071 1.04567C8.98545 1.10273 8.97182 1.45318 8.97215 1.94357C8.97268 2.714 8.97584 2.75344 9.04714 2.88088C9.12759 3.02471 9.35186 3.16355 9.50371 3.16355C9.65502 3.16355 9.8798 3.02464 9.96117 2.88088C10.0347 2.75101 10.0362 2.72767 10.0278 1.89388C10.0197 1.09056 10.0151 1.03446 9.9506 0.94816C9.91289 0.897678 9.84292 0.827176 9.79513 0.791493C9.68492 0.709219 9.42007 0.686372 9.28755 0.747729ZM3.69445 3.06718C3.44207 3.14021 3.28274 3.43688 3.35251 3.70395C3.38377 3.82361 3.48224 3.93801 3.99398 4.44915C4.57013 5.02467 4.60588 5.0541 4.75607 5.07642C5.10967 5.12893 5.41682 4.82204 5.36391 4.4691C5.34166 4.32085 5.30901 4.28041 4.7699 3.73375C4.09511 3.04952 3.98703 2.98251 3.69445 3.06718ZM14.941 3.09365C14.8585 3.13189 14.5914 3.37496 14.2375 3.73375C13.7026 4.27615 13.6656 4.32178 13.644 4.46577C13.5833 4.87023 13.9637 5.18892 14.3369 5.04639C14.546 4.96651 15.6004 3.899 15.6559 3.71094C15.7348 3.44393 15.5657 3.13977 15.2971 3.06515C15.1312 3.01906 15.0958 3.02188 14.941 3.09365ZM8.88848 4.2839C7.01236 4.52707 5.44532 5.78819 4.82098 7.55725C4.61566 8.13909 4.56521 8.46363 4.56564 9.19945C4.56611 9.93144 4.60425 10.2038 4.78304 10.7509C5.06032 11.5993 5.58892 12.3934 6.24465 12.9465C6.74595 13.3693 6.95536 13.6031 7.10328 13.9052C7.3365 14.3814 7.34894 14.4607 7.37491 15.6344C7.39587 16.581 7.40481 16.7003 7.46786 16.8726C7.60129 17.2371 7.81003 17.4713 8.14023 17.6268L8.32313 17.7129H9.50371H10.6843L10.9057 17.608C11.1808 17.4776 11.3786 17.2787 11.5125 16.9979L11.6154 16.7817L11.635 15.651C11.6515 14.6956 11.6636 14.492 11.7135 14.3374C11.8655 13.8667 12.1299 13.4934 12.5899 13.1004C13.2318 12.5518 13.626 12.0643 13.9423 11.4276C14.2931 10.7218 14.4216 10.198 14.4483 9.36573C14.4637 8.88877 14.4558 8.73799 14.3981 8.40131C14.1009 6.66843 12.9468 5.2413 11.3198 4.59497C11.017 4.47469 10.5106 4.34459 10.1581 4.29647C9.91412 4.26318 9.10973 4.2552 8.88848 4.2839ZM10.1562 5.37592C10.9435 5.5112 11.6151 5.85011 12.1907 6.40265C12.542 6.73999 12.7531 7.01964 12.9588 7.42027C13.266 8.01864 13.3946 8.54884 13.3946 9.21608C13.3946 9.87118 13.2556 10.4442 12.9578 11.0166C12.6945 11.5228 12.4305 11.8299 11.7344 12.4396C11.1634 12.9398 10.7564 13.6321 10.63 14.3182L10.5896 14.537H9.50205H8.41449L8.34305 14.2294C8.15602 13.424 7.73966 12.7819 7.05942 12.2497C6.96797 12.1782 6.78825 12.0088 6.66008 11.8734C5.68539 10.8435 5.35517 9.31162 5.81316 7.94461C6.25856 6.61515 7.40937 5.62942 8.81315 5.37495C9.14717 5.31443 9.80091 5.31489 10.1562 5.37592ZM9.42243 6.09637C8.93534 6.38177 9.15426 7.08772 9.72985 7.08772C9.95811 7.08772 10.3689 7.19959 10.6116 7.32782C10.8775 7.46836 11.2514 7.84232 11.392 8.1082C11.5202 8.35086 11.6321 8.76167 11.6321 8.98994C11.6321 9.43906 12.0766 9.71092 12.4419 9.48518C12.6786 9.33892 12.7412 9.08096 12.6607 8.58422C12.4344 7.18705 11.2627 6.11815 9.86952 6.03774C9.58109 6.02111 9.54218 6.0262 9.42243 6.09637ZM1.30453 8.73078C0.992923 8.86649 0.894885 9.29087 1.11474 9.55219C1.26948 9.73606 1.33875 9.74823 2.22797 9.74763C3.00173 9.7471 3.04104 9.74398 3.16851 9.67264C3.31234 9.5922 3.45118 9.36792 3.45118 9.21608C3.45118 9.06423 3.31234 8.83996 3.16851 8.75951C3.04074 8.68801 3.00326 8.68512 2.22072 8.68585C1.61776 8.68638 1.37959 8.69809 1.30453 8.73078ZM15.8389 8.75861C15.6951 8.83999 15.5562 9.06476 15.5562 9.21608C15.5562 9.36739 15.6951 9.59216 15.8389 9.67354C15.9688 9.74704 15.9921 9.7486 16.8259 9.74019C17.7663 9.73067 17.7608 9.73184 17.932 9.50257C18.0281 9.37381 18.0281 9.05834 17.932 8.92958C17.7608 8.70031 17.7663 8.70148 16.8259 8.69197C15.9921 8.68355 15.9688 8.68512 15.8389 8.75861ZM4.68164 13.3641C4.62956 13.3736 4.37273 13.6048 3.99398 13.9831C3.328 14.6483 3.27749 14.728 3.35045 14.999C3.39677 15.171 3.59977 15.3539 3.77765 15.384C4.0134 15.4238 4.14323 15.3341 4.7699 14.6985C5.30897 14.1518 5.34166 14.1113 5.36391 13.9631C5.39793 13.7362 5.28526 13.5171 5.08197 13.4146C4.93847 13.3422 4.85696 13.332 4.68164 13.3641ZM13.9357 13.4033C13.6902 13.5179 13.577 13.7967 13.6734 14.0492C13.7533 14.2584 14.8208 15.3128 15.0088 15.3683C15.3911 15.4811 15.7688 15.1033 15.6559 14.7212C15.6248 14.6159 15.5001 14.4694 15.0791 14.0438C14.7836 13.7451 14.5021 13.4719 14.4533 13.4366C14.3181 13.3389 14.1033 13.325 13.9357 13.4033ZM10.5679 16.0724C10.5679 16.4643 10.5586 16.554 10.5129 16.6045C10.462 16.6607 10.3868 16.6653 9.5235 16.6648C9.00963 16.6645 8.57142 16.653 8.5497 16.6392C8.46956 16.5883 8.43953 16.4181 8.43953 16.0147V15.6012H9.50371H10.5679V16.0724Z" fill="#778192"/>
</svg>
