<svg width="19" height="15" viewBox="0 0 19 15" fill="none" xmlns="http://www.w3.org/2000/svg">
<path fill-rule="evenodd" clip-rule="evenodd" d="M4.80505 0.74797C4.71954 0.764774 4.588 0.815077 4.5127 0.859755C4.43744 0.904434 3.52569 1.74944 2.48658 2.73757C0.440351 4.68334 0.439746 4.68401 0.397097 5.09719C0.374313 5.31809 0.444694 5.5795 0.573852 5.75352C0.61732 5.81215 2.5026 7.80961 4.76333 10.1923C9.32572 15.001 9.01646 14.7059 9.49639 14.7088C9.98151 14.7119 9.69497 14.9829 13.9576 10.4899C18.8918 5.28904 18.4522 5.76512 18.5437 5.52276C18.6022 5.36772 18.616 5.27106 18.6022 5.1131C18.5645 4.68312 18.5709 4.69046 16.5254 2.75177C15.4953 1.77543 14.588 0.933768 14.5093 0.8814C14.4276 0.827074 14.2717 0.769793 14.1461 0.747899C13.8778 0.701191 5.04279 0.701227 4.80505 0.74797ZM13.4984 2.77701C13.6059 2.80688 13.8695 3.03917 14.7533 3.88283C15.3687 4.47023 15.8881 4.98074 15.9077 5.0173C15.9272 5.05383 15.9432 5.15597 15.9432 5.24426C15.9432 5.39004 15.9244 5.42528 15.7385 5.62813C15.2219 6.19183 10.2572 11.4155 10.178 11.4787C10.1164 11.5279 10.0353 11.5499 9.91604 11.5499C9.76207 11.5499 9.7301 11.5355 9.62145 11.4169L9.49959 11.2839V7.15859V3.03323L9.57667 2.93522C9.72879 2.74184 9.73042 2.74169 11.6178 2.74041C12.7431 2.73963 13.4105 2.75262 13.4984 2.77701Z" fill="#778192"/>
</svg>
